<?xml version="1.0" standalone="no"?>
<!DOCTYPE svg PUBLIC "-//W3C//DTD SVG 20010904//EN"
 "http://www.w3.org/TR/2001/REC-SVG-20010904/DTD/svg10.dtd">
<svg version="1.0" xmlns="http://www.w3.org/2000/svg"
 width="1197.000000pt" height="1197.000000pt" viewBox="0 0 1197.000000 1197.000000"
 preserveAspectRatio="xMidYMid meet">
<metadata>
Created by potrace 1.14, written by Peter Selinger 2001-2017
</metadata>
<g transform="translate(0.000000,1197.000000) scale(0.100000,-0.100000)"
fill="#000000" stroke="none">
<path d="M7840 11952 c0 -4 6 -16 13 -27 8 -11 49 -87 92 -170 43 -82 87 -166
98 -185 52 -90 210 -417 251 -517 102 -248 137 -444 131 -728 -2 -99 -7 -198
-10 -220 -44 -276 -124 -536 -250 -815 -52 -114 -167 -342 -171 -337 -1 1 -27
45 -59 97 -412 676 -938 1200 -1683 1677 -62 40 -115 73 -117 73 -2 0 -40 23
-84 50 -44 28 -83 50 -86 50 -3 0 -22 11 -43 24 -56 35 -372 196 -500 254
-288 132 -671 267 -997 352 -66 17 -138 38 -160 45 -36 12 -89 24 -230 54 -27
6 -61 13 -75 15 -14 2 -56 11 -93 20 -92 22 -120 20 -144 -6 -19 -21 -308
-652 -628 -1368 -23 -52 -51 -115 -63 -140 -11 -25 -132 -290 -267 -590 -136
-300 -257 -567 -270 -595 -36 -79 -86 -187 -100 -220 -7 -16 -23 -52 -35 -80
-13 -27 -65 -144 -117 -260 -51 -115 -98 -219 -103 -230 -22 -48 -110 -342
-116 -384 -7 -60 -38 -246 -49 -301 -3 -14 -8 -47 -11 -75 -4 -27 -8 -53 -10
-56 -17 -30 -25 -389 -11 -519 13 -118 13 -122 22 -175 65 -419 278 -973 583
-1515 52 -92 237 -397 267 -440 18 -25 34 -50 36 -55 2 -6 40 -64 84 -128 44
-65 87 -129 95 -141 43 -67 297 -415 317 -434 7 -7 13 -17 13 -20 0 -4 10 -18
23 -32 12 -14 33 -41 47 -60 13 -19 27 -37 30 -40 3 -3 37 -45 75 -95 102
-132 332 -417 458 -565 260 -307 345 -427 532 -760 66 -117 305 -589 305 -603
0 -2 24 -56 54 -118 52 -112 96 -209 96 -214 0 -2 -22 -17 -50 -35 -95 -61
-189 -172 -239 -281 -47 -104 -63 -181 -67 -324 -1 -71 -4 -134 -5 -140 -4
-23 25 -135 54 -204 95 -232 292 -396 537 -448 19 -4 89 -7 155 -6 100 1 133
5 200 27 304 98 495 370 499 711 1 120 -6 170 -34 256 -42 126 -115 238 -214
329 -53 49 -139 110 -155 110 -23 0 -21 25 5 88 44 105 181 375 257 507 38 66
78 136 89 155 133 230 417 640 687 990 136 177 465 586 485 605 6 6 40 46 76
90 36 44 77 94 91 110 51 59 606 711 679 800 41 50 77 92 80 95 16 15 388 477
447 555 13 17 49 64 81 105 176 228 482 667 588 843 16 27 36 61 45 75 16 26
98 166 142 242 53 92 254 499 262 530 1 3 9 23 19 45 20 45 117 305 120 320 2
6 13 42 25 80 12 39 24 77 26 85 2 8 13 47 23 85 41 147 82 344 98 465 3 25 7
56 10 70 32 191 32 607 -1 830 -21 148 -65 347 -103 475 -109 361 -319 745
-601 1095 -267 332 -688 708 -1106 987 -129 86 -345 202 -345 185z m-3701
-708 c195 -47 305 -80 581 -173 355 -119 769 -307 1051 -476 51 -30 93 -55 96
-55 2 0 16 -9 31 -19 15 -10 83 -56 152 -101 463 -306 870 -679 1238 -1135
113 -139 310 -452 404 -640 l56 -110 -202 -302 c-110 -167 -203 -303 -206
-303 -3 1 -30 37 -60 82 -168 248 -431 531 -700 754 -450 373 -939 653 -1470
843 -80 29 -161 59 -180 67 -31 12 -283 88 -335 101 -44 10 -62 10 -76 -1 -8
-6 -111 -171 -229 -366 -117 -195 -220 -367 -229 -381 -9 -15 -49 -82 -89
-150 -40 -68 -258 -430 -483 -804 -230 -381 -445 -750 -489 -840 -74 -149 -83
-175 -134 -375 -30 -118 -57 -232 -60 -252 -3 -21 -10 -57 -15 -80 -18 -77
-24 -116 -36 -213 -4 -33 -9 -68 -11 -79 -2 -10 -6 -44 -10 -75 -3 -31 -8 -65
-10 -76 -2 -11 -7 -49 -10 -85 -3 -35 -6 -66 -8 -67 -3 -3 -94 202 -141 314
-67 165 -166 501 -180 613 -2 19 -7 60 -11 90 -14 106 -8 347 11 463 2 12 6
38 9 57 18 114 48 244 88 375 12 39 23 75 24 80 1 6 17 48 34 95 18 47 39 101
46 121 7 20 26 65 42 100 16 35 39 84 50 109 11 25 36 79 55 120 95 206 208
458 252 560 18 41 44 100 58 130 14 30 46 102 72 160 26 58 58 130 72 160 14
30 59 129 100 220 41 91 89 194 105 230 53 114 388 853 430 950 11 25 35 78
54 118 19 40 34 75 34 78 0 14 83 180 93 186 17 11 18 11 136 -18z m786 -1846
c160 -59 228 -86 313 -124 29 -13 55 -24 58 -24 10 0 318 -156 404 -205 207
-117 479 -309 675 -479 174 -150 429 -421 547 -581 21 -27 41 -54 45 -60 22
-28 133 -196 157 -237 l27 -47 -180 -263 c-99 -145 -217 -318 -263 -385 -46
-67 -87 -122 -92 -123 -6 0 -96 32 -200 72 -158 59 -202 81 -256 122 -81 63
-83 65 -151 120 -42 34 -59 42 -68 33 -8 -8 -24 2 -64 40 -204 199 -417 370
-590 472 -107 62 -253 126 -326 142 l-53 11 -50 -48 c-28 -27 -73 -73 -102
-103 -28 -30 -62 -66 -76 -81 -52 -54 -147 -179 -242 -315 -52 -75 -153 -254
-194 -342 -38 -82 -104 -247 -109 -273 -2 -8 -10 -33 -18 -55 -24 -67 -67
-273 -83 -400 -13 -96 -6 -390 10 -485 13 -79 16 -97 22 -130 3 -19 10 -53 16
-75 6 -22 12 -45 14 -51 8 -44 65 -207 100 -293 144 -343 385 -694 697 -1012
l28 -28 -22 -58 c-76 -206 -163 -507 -184 -633 -3 -19 -10 -57 -15 -85 -12
-66 -20 -121 -25 -170 -2 -22 -7 -65 -10 -95 -7 -59 -14 -197 -15 -268 0 -42
-3 -37 -193 245 -106 159 -229 340 -272 403 -43 63 -117 171 -164 240 -449
659 -573 862 -698 1148 -62 143 -129 327 -149 411 -2 9 -12 50 -23 91 -21 79
-22 86 -46 220 -14 82 -21 130 -30 215 -6 50 -7 361 -1 395 2 14 7 54 11 90
23 237 139 621 261 863 36 70 485 833 553 937 9 14 18 30 21 35 3 6 52 88 110
183 58 95 112 185 121 200 22 36 437 729 460 767 10 17 28 47 39 68 12 21 29
46 40 57 23 23 37 20 235 -52z"/>
</g>
</svg>
